<svg xmlns="http://www.w3.org/2000/svg" xmlns:xlink="http://www.w3.org/1999/xlink" xmlns:svgjs="http://svgjs.dev/svgjs" version="1.1" width="765" height="625" viewBox="0 0 434.2559875488281 300" class="svg-animations " style="background-color: rgb(49, 70, 204);"><svg viewBox="0 0 163.01300048828125 139" width="100" height="100" style="fill: rgb(255, 255, 255);" x="298.06798858642577" y="100"><svg xmlns="http://www.w3.org/2000/svg" width="163" height="134" viewBox="0 0 163 134">
	<g clip-path="url(#clip0)">
	<path d="M79.703 44.9371H140.585C144.773 44.9371 148.192 41.5127 148.192 37.3167C148.192 33.1207 144.773 29.6963 140.585 29.6963H79.703C75.5145 29.6963 72.0962 33.1207 72.0962 37.3167C72.0962 41.5127 75.5145 44.9371 79.703 44.9371Z"/>
	<path d="M96.5243 15.2408H125.763C129.951 15.2408 133.37 11.8164 133.37 7.6204C133.37 3.42444 129.938 0 125.763 0H96.5243C92.3358 0 88.9175 3.42444 88.9175 7.6204C88.9175 11.8164 92.3358 15.2408 96.5243 15.2408Z"/>
	<path d="M37.2506 15.2408H66.489C70.6775 15.2408 74.0959 11.8164 74.0959 7.6204C74.0959 3.42444 70.664 0 66.489 0H37.2506C33.0622 0 29.6438 3.42444 29.6438 7.6204C29.6438 11.8164 33.0622 15.2408 37.2506 15.2408Z"/>
	<path d="M48.8432 44.5182H55.6123C59.8008 44.5182 63.2192 41.0937 63.2192 36.8977C63.2192 32.7018 59.8008 29.2773 55.6123 29.2773H48.8432C44.6547 29.2773 41.2363 32.7018 41.2363 36.8977C41.2363 41.0937 44.6547 44.5182 48.8432 44.5182Z"/>
	<path d="M155.393 59.3799H94.5248C90.3363 59.3799 86.918 62.8043 86.918 67.0003C86.918 71.1962 90.3363 74.6207 94.5248 74.6207H155.407C159.595 74.6207 163.013 71.1962 163.013 67.0003C163 62.8043 159.582 59.3799 155.393 59.3799Z"/>
	<path d="M78.0277 66.5804C78.0277 62.3844 74.6093 58.96 70.4208 58.96H52.059C47.8705 58.96 44.4521 62.3844 44.4521 66.5804C44.4521 70.7763 47.8705 74.2008 52.059 74.2008H70.4208C74.6093 74.2008 78.0277 70.7763 78.0277 66.5804Z"/>
	<path d="M33.5755 66.5804C33.5755 62.3844 30.1572 58.96 25.9687 58.96H7.60685C3.41835 58.96 0 62.3844 0 66.5804C0 70.7763 3.41835 74.2008 7.60685 74.2008H25.9687C30.1572 74.2008 33.5755 70.7763 33.5755 66.5804Z"/>
	<path d="M140.571 89.0762H79.703C75.5145 89.0762 72.0962 92.5006 72.0962 96.6966C72.0962 100.893 75.5145 104.317 79.703 104.317H140.585C144.773 104.317 148.192 100.893 148.192 96.6966C148.192 92.5006 144.76 89.0762 140.571 89.0762Z"/>
	<path d="M125.763 118.759H96.5243C92.3358 118.759 88.9175 122.183 88.9175 126.379C88.9175 130.575 92.3358 134 96.5243 134H125.763C129.951 134 133.37 130.575 133.37 126.379C133.37 122.183 129.938 118.759 125.763 118.759Z"/>
	<path d="M66.489 118.759H37.2506C33.0622 118.759 29.6438 122.183 29.6438 126.379C29.6438 130.575 33.0622 134 37.2506 134H66.489C70.6775 134 74.0959 130.575 74.0959 126.379C74.0959 122.183 70.664 118.759 66.489 118.759Z"/>
	<path d="M48.8432 104.737H55.6123C59.8008 104.737 63.2192 101.312 63.2192 97.1165C63.2192 92.9205 59.8008 89.4961 55.6123 89.4961H48.8432C44.6547 89.4961 41.2363 92.9205 41.2363 97.1165C41.2363 101.312 44.6547 104.737 48.8432 104.737Z"/>
	</g>
	</svg></svg><svg style="fill: rgb(255, 255, 255);" x="46.18799896240233" y="132.83500003814697"><path d="M3.99 28L3.99 3.50L6.58 3.50L6.58 25.76L20.30 25.76L20.30 28L3.99 28ZM24.08 28L24.08 9.59L26.57 9.59L26.57 28L24.08 28ZM25.34 5.56Q24.57 5.56 24.05 5.04Q23.52 4.51 23.52 3.78L23.52 3.78Q23.52 3.08 24.05 2.55Q24.57 2.03 25.34 2.03L25.34 2.03Q26.11 2.03 26.64 2.54Q27.16 3.04 27.16 3.74L27.16 3.74Q27.16 4.51 26.64 5.04Q26.11 5.56 25.34 5.56L25.34 5.56ZM46.52 9.59L48.97 9.59L40.78 28L38.22 28L30.07 9.59L32.66 9.59L39.55 25.27L46.52 9.59ZM68.00 18.80L67.97 19.56L52.57 19.56Q52.78 22.43 54.78 24.20Q56.77 25.97 59.82 25.97L59.82 25.97Q61.53 25.97 62.97 25.36Q64.40 24.75 65.45 23.55L65.45 23.55L66.85 25.16Q65.63 26.63 63.79 27.41Q61.95 28.18 59.75 28.18L59.75 28.18Q56.91 28.18 54.72 26.97Q52.54 25.76 51.31 23.63Q50.09 21.49 50.09 18.80L50.09 18.80Q50.09 16.10 51.26 13.96Q52.43 11.83 54.48 10.64Q56.53 9.45 59.08 9.45L59.08 9.45Q61.64 9.45 63.67 10.64Q65.70 11.83 66.85 13.95Q68.00 16.06 68.00 18.80L68.00 18.80ZM59.08 11.58Q56.42 11.58 54.62 13.28Q52.82 14.98 52.57 17.71L52.57 17.71L65.63 17.71Q65.38 14.98 63.58 13.28Q61.78 11.58 59.08 11.58L59.08 11.58ZM88.34 3.95Q86.73 3.95 85.91 4.83Q85.09 5.70 85.09 7.42L85.09 7.42L85.09 9.59L90.76 9.59L90.76 11.69L85.16 11.69L85.16 28L82.67 28L82.67 11.69L79.38 11.69L79.38 9.59L82.67 9.59L82.67 7.31Q82.67 4.79 84.12 3.32Q85.58 1.85 88.24 1.85L88.24 1.85Q89.29 1.85 90.27 2.15Q91.25 2.45 91.91 3.01L91.91 3.01L91.07 4.86Q89.99 3.95 88.34 3.95L88.34 3.95ZM109.87 18.80L109.83 19.56L94.43 19.56Q94.64 22.43 96.64 24.20Q98.63 25.97 101.68 25.97L101.68 25.97Q103.39 25.97 104.83 25.36Q106.26 24.75 107.31 23.55L107.31 23.55L108.71 25.16Q107.49 26.63 105.65 27.41Q103.81 28.18 101.61 28.18L101.61 28.18Q98.77 28.18 96.58 26.97Q94.40 25.76 93.17 23.63Q91.95 21.49 91.95 18.80L91.95 18.80Q91.95 16.10 93.12 13.96Q94.29 11.83 96.34 10.64Q98.39 9.45 100.94 9.45L100.94 9.45Q103.50 9.45 105.53 10.64Q107.56 11.83 108.71 13.95Q109.87 16.06 109.87 18.80L109.87 18.80ZM100.94 11.58Q98.28 11.58 96.48 13.28Q94.68 14.98 94.43 17.71L94.43 17.71L107.49 17.71Q107.24 14.98 105.44 13.28Q103.64 11.58 100.94 11.58L100.94 11.58ZM131.00 18.80L130.97 19.56L115.57 19.56Q115.78 22.43 117.78 24.20Q119.77 25.97 122.82 25.97L122.82 25.97Q124.53 25.97 125.97 25.36Q127.40 24.75 128.45 23.55L128.45 23.55L129.85 25.16Q128.63 26.63 126.79 27.41Q124.95 28.18 122.75 28.18L122.75 28.18Q119.91 28.18 117.72 26.97Q115.54 25.76 114.31 23.63Q113.09 21.49 113.09 18.80L113.09 18.80Q113.09 16.10 114.26 13.96Q115.43 11.83 117.48 10.64Q119.53 9.45 122.08 9.45L122.08 9.45Q124.64 9.45 126.67 10.64Q128.70 11.83 129.85 13.95Q131.00 16.06 131.00 18.80L131.00 18.80ZM122.08 11.58Q119.42 11.58 117.62 13.28Q115.82 14.98 115.57 17.71L115.57 17.71L128.63 17.71Q128.38 14.98 126.58 13.28Q124.78 11.58 122.08 11.58L122.08 11.58ZM150.40 2.03L152.88 2.03L152.88 28L150.50 28L150.50 24.36Q149.38 26.21 147.54 27.20Q145.71 28.18 143.40 28.18L143.40 28.18Q140.81 28.18 138.71 26.98Q136.61 25.80 135.42 23.66Q134.23 21.52 134.23 18.80L134.23 18.80Q134.23 16.06 135.42 13.93Q136.61 11.79 138.71 10.62Q140.81 9.45 143.40 9.45L143.40 9.45Q145.64 9.45 147.44 10.38Q149.24 11.30 150.40 13.09L150.40 13.09L150.40 2.03ZM143.61 25.97Q145.53 25.97 147.09 25.08Q148.65 24.18 149.54 22.54Q150.43 20.89 150.43 18.80L150.43 18.80Q150.43 16.70 149.54 15.05Q148.65 13.40 147.09 12.51Q145.53 11.62 143.61 11.62L143.61 11.62Q141.65 11.62 140.09 12.51Q138.53 13.40 137.64 15.05Q136.75 16.70 136.75 18.80L136.75 18.80Q136.75 20.89 137.64 22.54Q138.53 24.18 140.09 25.08Q141.65 25.97 143.61 25.97L143.61 25.97ZM169.30 9.45Q171.89 9.45 173.99 10.62Q176.09 11.79 177.28 13.93Q178.47 16.06 178.47 18.80L178.47 18.80Q178.47 21.52 177.28 23.66Q176.09 25.80 173.99 26.98Q171.89 28.18 169.30 28.18L169.30 28.18Q166.99 28.18 165.15 27.20Q163.31 26.21 162.19 24.36L162.19 24.36L162.19 28L159.81 28L159.81 2.03L162.30 2.03L162.30 13.09Q163.45 11.30 165.25 10.38Q167.06 9.45 169.30 9.45L169.30 9.45ZM169.12 25.97Q171.05 25.97 172.62 25.08Q174.20 24.18 175.09 22.54Q175.98 20.89 175.98 18.80L175.98 18.80Q175.98 16.70 175.09 15.05Q174.20 13.40 172.62 12.51Q171.05 11.62 169.12 11.62L169.12 11.62Q167.16 11.62 165.60 12.51Q164.05 13.40 163.15 15.05Q162.26 16.70 162.26 18.80L162.26 18.80Q162.26 20.89 163.15 22.54Q164.05 24.18 165.60 25.08Q167.16 25.97 169.12 25.97L169.12 25.97ZM189.88 9.45Q193.48 9.45 195.41 11.25Q197.33 13.05 197.33 16.59L197.33 16.59L197.33 28L194.95 28L194.95 25.13Q194.11 26.57 192.48 27.37Q190.86 28.18 188.62 28.18L188.62 28.18Q185.54 28.18 183.72 26.70Q181.90 25.23 181.90 22.82L181.90 22.82Q181.90 20.48 183.59 19.04Q185.29 17.60 189.00 17.60L189.00 17.60L194.85 17.60L194.85 16.48Q194.85 14.10 193.52 12.86Q192.19 11.62 189.63 11.62L189.63 11.62Q187.88 11.62 186.27 12.20Q184.66 12.77 183.51 13.79L183.51 13.79L182.39 11.93Q183.79 10.74 185.75 10.10Q187.71 9.45 189.88 9.45L189.88 9.45ZM189.00 26.21Q191.10 26.21 192.61 25.25Q194.11 24.29 194.85 22.47L194.85 22.47L194.85 19.46L189.07 19.46Q184.35 19.46 184.35 22.75L184.35 22.75Q184.35 24.36 185.57 25.29Q186.80 26.21 189.00 26.21L189.00 26.21ZM211.79 28.18Q209.06 28.18 206.90 26.98Q204.75 25.80 203.53 23.64Q202.30 21.49 202.30 18.80L202.30 18.80Q202.30 16.10 203.53 13.96Q204.75 11.83 206.90 10.64Q209.06 9.45 211.79 9.45L211.79 9.45Q214.17 9.45 216.04 10.38Q217.91 11.30 219.00 13.09L219.00 13.09L217.14 14.35Q216.23 12.98 214.83 12.30Q213.43 11.62 211.79 11.62L211.79 11.62Q209.79 11.62 208.20 12.51Q206.61 13.40 205.71 15.05Q204.82 16.70 204.82 18.80L204.82 18.80Q204.82 20.93 205.71 22.56Q206.61 24.18 208.20 25.08Q209.79 25.97 211.79 25.97L211.79 25.97Q213.43 25.97 214.83 25.30Q216.23 24.64 217.14 23.27L217.14 23.27L219.00 24.54Q217.91 26.32 216.02 27.25Q214.13 28.18 211.79 28.18L211.79 28.18ZM237.83 28L230.41 18.76L226.07 22.75L226.07 28L223.58 28L223.58 2.03L226.07 2.03L226.07 19.63L237.06 9.59L240.14 9.59L232.26 17.11L240.87 28L237.83 28Z"/></svg><svg style="fill: rgb(255, 255, 255);" x="94.73399658203124" y="167.16499996185303"><path d="M2.94 16L0.36 16Q0.70 14.58 1.34 12.82Q1.98 11.06 2.76 9.16L2.76 9.16L1.66 9.16Q1.50 9.16 1.50 9.04L1.50 9.04Q1.50 8.92 1.68 8.71Q1.86 8.50 2.10 8.34Q2.34 8.18 2.50 8.18L2.50 8.18L3.18 8.18Q3.82 6.64 4.46 5.24Q5.10 3.84 5.80 2.80L5.80 2.80Q4.74 2.94 3.62 3.23Q2.50 3.52 1.62 3.95Q0.74 4.38 0.38 4.98L0.38 4.98Q0.36 5.04 0.30 5.04L0.30 5.04Q0.26 5.04 0.23 4.96Q0.20 4.88 0.22 4.78L0.22 4.78Q0.42 4.26 0.72 3.78Q1.02 3.30 1.30 3.02L1.30 3.02Q1.74 2.56 2.50 2.36Q3.26 2.16 4.07 2.10Q4.88 2.04 5.46 2.04L5.46 2.04L9.42 2.04Q10.12 2.04 10.67 1.99Q11.22 1.94 11.60 1.94L11.60 1.94Q12.22 1.94 12.32 2.24L12.32 2.24Q12.34 2.32 12.35 2.39Q12.36 2.46 12.36 2.56L12.36 2.56Q12.36 2.96 12.18 3.47Q12 3.98 11.79 4.45Q11.58 4.92 11.46 5.22L11.46 5.22Q11.44 5.32 11.35 5.36Q11.26 5.40 11.18 5.40L11.18 5.40Q11.08 5.40 11 5.36L11 5.36Q10.94 5.32 10.97 5.09Q11 4.86 11.06 4.56Q11.12 4.26 11.12 4.04L11.12 4.04Q11.12 3.40 10.54 3.05Q9.96 2.70 9.20 2.70L9.20 2.70Q8.64 2.70 8.29 2.79Q7.94 2.88 7.70 3.22L7.70 3.22Q7.08 4.08 6.44 5.44Q5.80 6.80 5.22 8.18L5.22 8.18L9.66 8.18Q9.72 8.18 9.59 8.42Q9.46 8.66 9.27 8.91Q9.08 9.16 8.94 9.16L8.94 9.16L4.80 9.16Q4.58 9.70 4.25 10.55Q3.92 11.40 3.60 12.36Q3.28 13.32 3.07 14.17Q2.86 15.02 2.86 15.56L2.86 15.56Q2.86 15.86 2.94 16L2.94 16ZM12.74 15.72L12.74 15.72Q11.82 16.20 10.80 16.20L10.80 16.20Q9.94 16.20 9.20 15.78Q8.46 15.36 8.20 14.44L8.20 14.44Q8.08 14.02 8.08 13.56L8.08 13.56Q8.08 12.80 8.35 11.99Q8.62 11.18 9.06 10.50L9.06 10.50Q9.74 9.44 10.78 8.74Q11.82 8.04 13.08 8.04L13.08 8.04Q14.02 8.04 14.54 8.52Q15.06 9 15.06 9.64L15.06 9.64Q15.06 10.40 14.55 10.97Q14.04 11.54 13.22 11.84L13.22 11.84Q12.82 11.98 12.37 12.05Q11.92 12.12 11.52 12.12L11.52 12.12Q10.70 12.12 10.26 11.90L10.26 11.90Q9.88 12.88 9.88 13.70L9.88 13.70Q9.88 14.44 10.22 14.91Q10.56 15.38 11.30 15.38L11.30 15.38Q11.92 15.38 12.53 15.04Q13.14 14.70 13.67 14.20Q14.20 13.70 14.56 13.24L14.56 13.24Q14.84 12.90 15.04 12.60Q15.24 12.30 15.46 11.91Q15.68 11.52 15.98 10.94L15.98 10.94Q16.06 10.80 16.12 10.80L16.12 10.80Q16.24 10.80 16.24 11.12L16.24 11.12Q16.24 11.30 16.19 11.51Q16.14 11.72 16.02 11.94L16.02 11.94Q15.74 12.44 15.35 13.03Q14.96 13.62 14.56 14.16L14.56 14.16Q14.20 14.64 13.74 15.04Q13.28 15.44 12.74 15.72ZM10.92 11.46L10.92 11.46Q11.02 11.52 11.14 11.54Q11.26 11.56 11.38 11.56L11.38 11.56Q11.78 11.56 12.18 11.37Q12.58 11.18 12.86 10.98L12.86 10.98Q13.32 10.66 13.64 10.22Q13.96 9.78 14 9.22L14 9.22Q14.02 8.98 13.89 8.81Q13.76 8.64 13.44 8.64L13.44 8.64Q13.28 8.64 13.04 8.70L13.04 8.70Q12.72 8.78 12.40 9Q12.08 9.22 11.78 9.52L11.78 9.52Q11.68 9.62 11.43 9.91Q11.18 10.20 10.96 10.55Q10.74 10.90 10.74 11.16L10.74 11.16Q10.74 11.38 10.92 11.46ZM19.90 15.72L19.90 15.72Q18.98 16.20 17.96 16.20L17.96 16.20Q17.10 16.20 16.36 15.78Q15.62 15.36 15.36 14.44L15.36 14.44Q15.24 14.02 15.24 13.56L15.24 13.56Q15.24 12.80 15.51 11.99Q15.78 11.18 16.22 10.50L16.22 10.50Q16.90 9.44 17.94 8.74Q18.98 8.04 20.24 8.04L20.24 8.04Q21.18 8.04 21.70 8.52Q22.22 9 22.22 9.64L22.22 9.64Q22.22 10.40 21.71 10.97Q21.20 11.54 20.38 11.84L20.38 11.84Q19.98 11.98 19.53 12.05Q19.08 12.12 18.68 12.12L18.68 12.12Q17.86 12.12 17.42 11.90L17.42 11.90Q17.04 12.88 17.04 13.70L17.04 13.70Q17.04 14.44 17.38 14.91Q17.72 15.38 18.46 15.38L18.46 15.38Q19.08 15.38 19.69 15.04Q20.30 14.70 20.83 14.20Q21.36 13.70 21.72 13.24L21.72 13.24Q22 12.90 22.20 12.60Q22.40 12.30 22.62 11.91Q22.84 11.52 23.14 10.94L23.14 10.94Q23.22 10.80 23.28 10.80L23.28 10.80Q23.40 10.80 23.40 11.12L23.40 11.12Q23.40 11.30 23.35 11.51Q23.30 11.72 23.18 11.94L23.18 11.94Q22.90 12.44 22.51 13.03Q22.12 13.62 21.72 14.16L21.72 14.16Q21.36 14.64 20.90 15.04Q20.44 15.44 19.90 15.72ZM18.08 11.46L18.08 11.46Q18.18 11.52 18.30 11.54Q18.42 11.56 18.54 11.56L18.54 11.56Q18.94 11.56 19.34 11.37Q19.74 11.18 20.02 10.98L20.02 10.98Q20.48 10.66 20.80 10.22Q21.12 9.78 21.16 9.22L21.16 9.22Q21.18 8.98 21.05 8.81Q20.92 8.64 20.60 8.64L20.60 8.64Q20.44 8.64 20.20 8.70L20.20 8.70Q19.88 8.78 19.56 9Q19.24 9.22 18.94 9.52L18.94 9.52Q18.84 9.62 18.59 9.91Q18.34 10.20 18.12 10.55Q17.90 10.90 17.90 11.16L17.90 11.16Q17.90 11.38 18.08 11.46ZM28.56 16.12L28.56 16.12Q27.96 16.12 27.73 15.67Q27.50 15.22 27.50 14.54L27.50 14.54Q27.50 14.22 27.54 13.89Q27.58 13.56 27.64 13.22L27.64 13.22Q27.68 12.92 27.80 12.49Q27.92 12.06 28.08 11.56L28.08 11.56Q27.70 12.32 27.20 13.11Q26.70 13.90 26.11 14.57Q25.52 15.24 24.89 15.65Q24.26 16.06 23.62 16.06L23.62 16.06Q23.06 16.06 22.67 15.65Q22.28 15.24 22.28 14.22L22.28 14.22Q22.28 13.18 22.64 12.08Q23 10.98 23.65 10.03Q24.30 9.08 25.19 8.50Q26.08 7.92 27.14 7.92L27.14 7.92Q27.58 7.92 28.12 8.10Q28.66 8.28 28.94 8.80L28.94 8.80Q29.04 8.64 29.10 8.48Q29.16 8.32 29.22 8.20L29.22 8.20Q29.70 7.14 30.04 6.20Q30.38 5.26 30.64 4.74L30.64 4.74Q30.98 4.06 31.18 3.71Q31.38 3.36 31.55 3.22Q31.72 3.08 31.94 3.02L31.94 3.02Q32.12 2.98 32.34 2.96Q32.56 2.94 32.80 2.94L32.80 2.94Q33.04 2.94 33.35 2.94Q33.66 2.94 33.74 2.92L33.74 2.92Q33.40 3.16 32.94 3.90Q32.48 4.64 31.98 5.68Q31.48 6.72 31.01 7.89Q30.54 9.06 30.15 10.21Q29.76 11.36 29.53 12.30Q29.30 13.24 29.30 13.82L29.30 13.82Q29.30 14.46 29.66 14.46L29.66 14.46Q29.90 14.46 30.23 14.22Q30.56 13.98 30.84 13.68Q31.12 13.38 31.24 13.24L31.24 13.24Q31.64 12.72 32 12.13Q32.36 11.54 32.62 11.02L32.62 11.02Q32.72 10.86 32.76 10.86L32.76 10.86Q32.90 10.86 32.90 11.22L32.90 11.22Q32.90 11.60 32.70 11.94L32.70 11.94Q32.42 12.42 32.03 13.01Q31.64 13.60 31.24 14.16L31.24 14.16Q30.96 14.52 30.51 14.98Q30.06 15.44 29.55 15.78Q29.04 16.12 28.56 16.12ZM24.52 14.38L24.52 14.38Q24.58 14.40 24.70 14.40L24.70 14.40Q25.26 14.40 26.01 13.65Q26.76 12.90 27.52 11.68L27.52 11.68Q27.68 11.44 27.90 11Q28.12 10.56 28.37 10.03Q28.62 9.50 28.84 9.04L28.84 9.04Q28.70 8.84 28.49 8.76Q28.28 8.68 28.04 8.68L28.04 8.68Q27.60 8.68 27.10 8.91Q26.60 9.14 26.26 9.48L26.26 9.48Q25.74 10 25.27 10.82Q24.80 11.64 24.51 12.44Q24.22 13.24 24.22 13.78L24.22 13.78Q24.22 14.28 24.52 14.38ZM33.54 16.20L33.54 16.20Q32.62 16.20 32.17 15.88Q31.72 15.56 31.72 14.66L31.72 14.66Q31.72 14 31.96 13.02L31.96 13.02Q32.12 12.36 32.43 11.32Q32.74 10.28 33.15 9.11Q33.56 7.94 34 6.83Q34.44 5.72 34.86 4.92L34.86 4.92Q35.38 3.92 35.68 3.51Q35.98 3.10 36.34 3.02L36.34 3.02Q36.50 2.98 36.73 2.96Q36.96 2.94 37.20 2.94L37.20 2.94Q37.42 2.94 37.73 2.94Q38.04 2.94 38.12 2.92L38.12 2.92Q37.74 3.20 37.18 4.11Q36.62 5.02 36.02 6.30Q35.42 7.58 34.88 9Q34.34 10.42 34 11.74L34 11.74Q34.32 11.18 34.66 10.66Q35 10.14 35.32 9.74L35.32 9.74Q35.96 8.96 36.68 8.44Q37.40 7.92 38.08 7.92L38.08 7.92Q38.66 7.92 39.05 8.34Q39.44 8.76 39.44 9.76L39.44 9.76Q39.44 10.82 38.98 11.89Q38.52 12.96 37.80 13.84L37.80 13.84Q37.82 14.16 38 14.37Q38.18 14.58 38.46 14.58L38.46 14.58Q38.74 14.58 39.02 14.38L39.02 14.38Q39.32 14.18 39.59 13.86Q39.86 13.54 40.10 13.24L40.10 13.24Q40.50 12.72 40.87 12.12Q41.24 11.52 41.50 11.02L41.50 11.02Q41.60 10.86 41.64 10.86L41.64 10.86Q41.76 10.86 41.76 11.20L41.76 11.20Q41.76 11.36 41.71 11.56Q41.66 11.76 41.56 11.96L41.56 11.96Q41.32 12.36 41 12.90Q40.68 13.44 40.29 13.96Q39.90 14.48 39.45 14.85Q39 15.22 38.48 15.32L38.48 15.32Q38.44 15.32 38.38 15.33Q38.32 15.34 38.28 15.34L38.28 15.34Q37.94 15.34 37.62 15.14Q37.30 14.94 37.16 14.56L37.16 14.56Q36.92 14.80 36.68 15Q36.44 15.20 36.20 15.38L36.20 15.38Q35.64 15.76 35 15.98Q34.36 16.20 33.54 16.20ZM34 15.48L34 15.48Q34.34 15.48 34.79 15.13Q35.24 14.78 35.67 14.25Q36.10 13.72 36.40 13.22L36.40 13.22Q36.86 12.44 37.18 11.60Q37.50 10.76 37.50 10.20L37.50 10.20Q37.50 9.70 37.20 9.62L37.20 9.62Q37.16 9.60 37.10 9.60Q37.04 9.60 37 9.60L37 9.60Q36.60 9.60 36.10 10L36.10 10Q35.74 10.28 35.28 10.82Q34.82 11.36 34.39 12.03Q33.96 12.70 33.69 13.38Q33.42 14.06 33.42 14.64L33.42 14.64Q33.42 14.72 33.43 14.82Q33.44 14.92 33.46 15.02L33.46 15.02Q33.56 15.48 34 15.48ZM46.88 16.12L46.88 16.12Q46.26 16.12 46.03 15.64Q45.80 15.16 45.80 14.46L45.80 14.46Q45.80 13.82 45.92 13.20L45.92 13.20Q45.98 12.92 46.05 12.63Q46.12 12.34 46.22 12.02L46.22 12.02Q45.88 12.64 45.51 13.22Q45.14 13.80 44.76 14.24L44.76 14.24Q44.12 15.02 43.41 15.54Q42.70 16.06 42.00 16.06L42.00 16.06Q41.44 16.06 41.05 15.65Q40.66 15.24 40.66 14.22L40.66 14.22Q40.66 13.18 41.02 12.08Q41.38 10.98 42.03 10.03Q42.68 9.08 43.57 8.50Q44.46 7.92 45.52 7.92L45.52 7.92Q45.86 7.92 46.26 8.02Q46.66 8.12 47.00 8.39Q47.34 8.66 47.46 9.14L47.46 9.14Q47.48 9.10 47.51 9.08Q47.54 9.06 47.56 9.04L47.56 9.04Q47.84 8.60 48.20 8.30Q48.56 8 49.00 8L49.00 8Q49.22 8 49.62 8.02Q50.02 8.04 50.20 8.02L50.20 8.02Q50.10 8.10 49.93 8.34Q49.76 8.58 49.62 8.83Q49.48 9.08 49.40 9.22L49.40 9.22Q48.86 10.26 48.42 11.28Q47.98 12.30 47.74 13.24L47.74 13.24Q47.68 13.44 47.66 13.61Q47.64 13.78 47.64 13.94L47.64 13.94Q47.64 14.46 47.98 14.46L47.98 14.46Q48.30 14.46 48.78 14.06L48.78 14.06Q49.48 13.50 50.01 12.66Q50.54 11.82 50.94 11.04L50.94 11.04Q51.02 10.90 51.08 10.90L51.08 10.90Q51.20 10.90 51.20 11.24L51.20 11.24Q51.20 11.40 51.15 11.60Q51.10 11.80 51.00 11.98L51.00 11.98Q50.72 12.46 50.27 13.16Q49.82 13.86 49.26 14.53Q48.70 15.20 48.09 15.66Q47.48 16.12 46.88 16.12ZM42.90 14.38L42.90 14.38Q42.96 14.40 43.08 14.40L43.08 14.40Q43.46 14.40 43.90 14.08Q44.34 13.76 44.78 13.25Q45.22 12.74 45.56 12.22L45.56 12.22Q46.44 10.82 46.86 10.12Q47.28 9.42 47.34 9.32L47.34 9.32Q47.24 8.98 46.99 8.82Q46.74 8.66 46.40 8.66L46.40 8.66Q45.96 8.66 45.47 8.90Q44.98 9.14 44.64 9.48L44.64 9.48Q44.12 10 43.65 10.82Q43.18 11.64 42.89 12.44Q42.60 13.24 42.60 13.78L42.60 13.78Q42.60 14.28 42.90 14.38ZM52.84 16.20L52.84 16.20Q51.90 16.20 51.32 15.85Q50.74 15.50 50.49 14.91Q50.24 14.32 50.24 13.64L50.24 13.64Q50.24 12.96 50.44 12.26Q50.64 11.56 50.98 10.94L50.98 10.94Q51.68 9.68 52.71 8.86Q53.74 8.04 55.24 8.04L55.24 8.04Q56.18 8.04 56.70 8.52Q57.22 9 57.22 9.64L57.22 9.64Q57.22 10.24 56.87 10.74Q56.52 11.24 55.94 11.24L55.94 11.24Q55.62 11.24 55.38 11.06Q55.14 10.88 55.14 10.50L55.14 10.50Q55.14 10.44 55.15 10.37Q55.16 10.30 55.18 10.22L55.18 10.22Q55.30 10.20 55.53 10.15Q55.76 10.10 55.90 9.88L55.90 9.88Q56.16 9.52 56.16 9.16L56.16 9.16Q56.16 8.94 56.03 8.79Q55.90 8.64 55.60 8.64L55.60 8.64Q55.06 8.64 54.50 9.03Q53.94 9.42 53.45 10.06Q52.96 10.70 52.60 11.46L52.60 11.46Q52.04 12.68 52.04 13.70L52.04 13.70Q52.04 14.44 52.38 14.91Q52.72 15.38 53.46 15.38L53.46 15.38Q54.40 15.38 55.23 14.73Q56.06 14.08 56.72 13.22L56.72 13.22Q57.16 12.66 57.51 12.08Q57.86 11.50 58.10 11.02L58.10 11.02Q58.18 10.88 58.24 10.88L58.24 10.88Q58.36 10.88 58.36 11.22L58.36 11.22Q58.36 11.38 58.31 11.59Q58.26 11.80 58.16 11.98L58.16 11.98Q57.82 12.54 57.47 13.10Q57.12 13.66 56.72 14.16L56.72 14.16Q56.04 15.04 55.12 15.62Q54.20 16.20 52.84 16.20ZM57.36 16L56.14 16Q56.36 15.60 56.63 14.98Q56.90 14.36 57.17 13.63Q57.44 12.90 57.66 12.22L57.66 12.22Q58.16 10.68 58.69 9.18Q59.22 7.68 59.76 6.58L59.76 6.58Q59.98 6.10 60.32 5.41Q60.66 4.72 61.09 3.98Q61.52 3.24 62.03 2.59Q62.54 1.94 63.13 1.54Q63.72 1.14 64.36 1.14L64.36 1.14Q65 1.14 65.23 1.42Q65.46 1.70 65.46 2.12L65.46 2.12Q65.46 2.58 65.26 3.10Q65.06 3.62 64.88 3.96L64.88 3.96Q64.48 4.72 63.85 5.67Q63.22 6.62 62.54 7.44L62.54 7.44Q62.20 7.86 61.72 8.39Q61.24 8.92 60.77 9.40Q60.30 9.88 59.96 10.22L59.96 10.22L59.60 11.22Q60.12 10.54 60.70 10Q61.28 9.46 61.96 8.92L61.96 8.92Q62.46 8.52 63.01 8.32Q63.56 8.12 64.02 8.12L64.02 8.12Q64.36 8.12 64.65 8.22Q64.94 8.32 65.08 8.54L65.08 8.54Q65.18 8.68 65.22 8.84Q65.26 9 65.26 9.16L65.26 9.16Q65.26 9.48 65.14 9.78L65.14 9.78Q64.88 10.40 64.39 10.83Q63.90 11.26 63.28 11.48L63.28 11.48Q63.06 11.56 62.70 11.66Q62.34 11.76 62.06 11.80L62.06 11.80Q62.10 12.08 62.13 12.36Q62.16 12.64 62.20 12.92L62.20 12.92Q62.32 13.60 62.51 14.08Q62.70 14.56 63.12 14.56L63.12 14.56Q63.50 14.56 64.14 14.06L64.14 14.06Q64.60 13.70 64.94 13.24L64.94 13.24Q65.34 12.72 65.70 12.13Q66.06 11.54 66.32 11.04L66.32 11.04Q66.40 10.90 66.46 10.90L66.46 10.90Q66.58 10.90 66.58 11.22L66.58 11.22Q66.58 11.40 66.53 11.61Q66.48 11.82 66.36 12.02L66.36 12.02Q66.08 12.50 65.71 13.06Q65.34 13.62 64.94 14.16L64.94 14.16Q64.72 14.46 64.38 14.82Q64.04 15.18 63.66 15.48L63.66 15.48Q63.32 15.74 62.84 15.95Q62.36 16.16 61.90 16.16L61.90 16.16Q61.54 16.16 61.23 16Q60.92 15.84 60.72 15.46L60.72 15.46Q60.50 15.04 60.38 14.46Q60.26 13.88 60.26 13.30L60.26 13.30Q60.26 12.98 60.29 12.67Q60.32 12.36 60.40 12.10L60.40 12.10Q60.50 11.76 60.60 11.64Q60.70 11.52 60.86 11.52L60.86 11.52Q61.44 11.50 62 11.35Q62.56 11.20 62.94 10.86L62.94 10.86Q63.40 10.46 63.40 9.96L63.40 9.96Q63.40 9.74 63.25 9.57Q63.10 9.40 62.76 9.40L62.76 9.40Q62.30 9.40 61.86 9.70Q61.42 10 61.02 10.48Q60.62 10.96 60.28 11.47Q59.94 11.98 59.70 12.40L59.70 12.40Q59.52 12.70 59.30 13.18Q59.08 13.66 58.84 14.18Q58.60 14.70 58.36 15.12Q58.12 15.54 57.90 15.74L57.90 15.74Q57.64 16 57.36 16L57.36 16ZM60.48 8.86L60.48 8.86Q61.48 7.70 62.44 6.42Q63.40 5.14 64.08 3.80L64.08 3.80Q64.14 3.70 64.28 3.38Q64.42 3.06 64.55 2.68Q64.68 2.30 64.68 2.02L64.68 2.02Q64.68 1.66 64.40 1.66L64.40 1.66Q64.12 1.66 63.73 2.14Q63.34 2.62 62.91 3.41Q62.48 4.20 62.04 5.15Q61.60 6.10 61.20 7.07Q60.80 8.04 60.48 8.86ZM73.90 16.16L73.90 16.16Q72.98 16.16 72.31 15.58Q71.64 15 71.64 13.72L71.64 13.72Q71.64 12.78 71.98 11.76Q72.32 10.74 72.95 9.86Q73.58 8.98 74.48 8.42Q75.38 7.86 76.50 7.86L76.50 7.86Q77.42 7.86 77.93 8.21Q78.44 8.56 78.66 9.14Q78.88 9.72 78.88 10.38L78.88 10.38Q78.88 10.88 78.77 11.39Q78.66 11.90 78.46 12.40L78.46 12.40Q78.80 12.80 79.32 12.80L79.32 12.80Q79.88 12.80 80.36 12.38L80.36 12.38Q80.64 12.14 80.87 11.77Q81.10 11.40 81.28 11.08L81.28 11.08Q81.34 10.96 81.42 10.96L81.42 10.96Q81.52 10.96 81.52 11.24L81.52 11.24Q81.52 11.42 81.47 11.66Q81.42 11.90 81.26 12.14L81.26 12.14Q80.96 12.66 80.64 12.93Q80.32 13.20 79.92 13.36L79.92 13.36Q79.62 13.48 79.28 13.48L79.28 13.48Q78.66 13.48 78.16 13.10L78.16 13.10Q78 13.44 77.76 13.80L77.76 13.80Q77.18 14.78 76.26 15.47Q75.34 16.16 73.90 16.16ZM74.66 15.40L74.66 15.40Q75.12 15.40 75.55 15.09Q75.98 14.78 76.34 14.32Q76.70 13.86 76.97 13.36Q77.24 12.86 77.42 12.48L77.42 12.48Q76.74 11.90 76.74 11.02L76.74 11.02Q76.74 10.44 77.06 10.12Q77.38 9.80 77.94 9.84L77.94 9.84Q77.92 9.38 77.70 9.08Q77.48 8.78 76.98 8.78L76.98 8.78Q76.52 8.78 76.11 9.06Q75.70 9.34 75.35 9.77Q75 10.20 74.73 10.65Q74.46 11.10 74.28 11.46L74.28 11.46Q74.02 11.98 73.80 12.72Q73.58 13.46 73.58 14.10L73.58 14.10Q73.58 14.66 73.81 15.03Q74.04 15.40 74.66 15.40ZM85.92 16.12L85.92 16.12Q85.24 16.12 84.99 15.71Q84.74 15.30 84.74 14.76L84.74 14.76Q84.74 14.10 85 13.17Q85.26 12.24 85.61 11.29Q85.96 10.34 86.24 9.60L86.24 9.60Q86.32 9.42 86.32 9.22L86.32 9.22Q86.32 9 86.18 8.90Q86.04 8.80 85.82 8.80L85.82 8.80Q85.50 8.80 85.10 9L85.10 9Q84.48 9.32 83.92 10.02Q83.36 10.72 83.02 11.48L83.02 11.48Q82.64 12.34 82.34 13.20Q82.04 14.06 81.86 14.60L81.86 14.60Q81.74 14.94 81.64 15.30Q81.54 15.66 81.44 16L81.44 16L79.50 16Q79.50 16 79.63 15.50Q79.76 15 79.96 14.50L79.96 14.50Q80.30 13.62 80.65 12.74Q81 11.86 81.26 11.18L81.26 11.18Q81.34 10.98 81.51 10.43Q81.68 9.88 81.83 9.28Q81.98 8.68 81.98 8.30L81.98 8.30Q81.98 8.08 81.92 8L81.92 8Q82.10 8 82.33 7.99Q82.56 7.98 82.76 7.98L82.76 7.98Q83.04 7.98 83.29 8Q83.54 8.02 83.62 8.10L83.62 8.10Q83.86 8.28 83.86 8.62L83.86 8.62Q83.86 8.86 83.77 9.10Q83.68 9.34 83.64 9.50L83.64 9.50Q83.92 9.24 84.22 9Q84.52 8.76 85.14 8.38L85.14 8.38Q85.50 8.16 86.04 8.02Q86.58 7.88 87.02 7.88L87.02 7.88Q88.16 7.88 88.16 8.94L88.16 8.94Q88.16 9.12 88.13 9.34Q88.10 9.56 88 9.82L88 9.82Q87.90 10.14 87.68 10.70Q87.46 11.26 87.23 11.89Q87 12.52 86.84 13.08Q86.68 13.64 86.68 13.98L86.68 13.98Q86.68 14.46 87.04 14.46L87.04 14.46Q87.36 14.46 87.84 14.06L87.84 14.06Q88.30 13.68 88.64 13.24L88.64 13.24Q89.06 12.72 89.41 12.13Q89.76 11.54 90.02 11.04L90.02 11.04Q90.12 10.88 90.16 10.88L90.16 10.88Q90.28 10.88 90.28 11.22L90.28 11.22Q90.28 11.38 90.23 11.59Q90.18 11.80 90.08 11.98L90.08 11.98Q89.80 12.46 89.42 13.04Q89.04 13.62 88.64 14.16L88.64 14.16Q88.36 14.54 87.90 15Q87.44 15.46 86.92 15.79Q86.40 16.12 85.92 16.12ZM96.94 16.12L96.94 16.12Q96.36 16.12 96.06 15.66L96.06 15.66Q95.92 15.44 95.86 15.14Q95.80 14.84 95.80 14.52L95.80 14.52Q95.80 14.20 95.84 13.87Q95.88 13.54 95.94 13.22L95.94 13.22Q96.04 12.70 96.17 12.27Q96.30 11.84 96.44 11.44L96.44 11.44L96.44 11.42Q96.28 11.72 96.04 12.07Q95.80 12.42 95.70 12.58L95.70 12.58Q95.56 12.80 95.48 12.80L95.48 12.80Q95.40 12.80 95.40 12.62L95.40 12.62Q95.40 12.22 95.64 11.74L95.64 11.74Q95.80 11.42 96.08 10.91Q96.36 10.40 96.66 9.80Q96.96 9.20 97.18 8.64L97.18 8.64L95.84 8.64Q95.74 8.64 95.80 8.48Q95.86 8.32 95.98 8.17Q96.10 8.02 96.16 8.02L96.16 8.02L97.68 8.02Q97.90 7.50 98.19 6.90Q98.48 6.30 98.85 5.77Q99.22 5.24 99.66 4.90Q100.10 4.56 100.60 4.56L100.60 4.56Q100.82 4.56 101.15 4.56Q101.48 4.56 101.56 4.54L101.56 4.54Q101.14 4.82 100.58 5.65Q100.02 6.48 99.36 8.02L99.36 8.02L101.38 8.02Q101.44 8.02 101.34 8.17Q101.24 8.32 101.09 8.48Q100.94 8.64 100.80 8.64L100.80 8.64L99.08 8.64Q98.82 9.30 98.51 10.08Q98.20 10.86 97.95 11.61Q97.70 12.36 97.58 12.98L97.58 12.98Q97.50 13.36 97.50 13.68L97.50 13.68Q97.50 14.44 97.98 14.44L97.98 14.44Q98.30 14.44 98.74 14.12Q99.18 13.80 99.62 13.24L99.62 13.24Q100.02 12.72 100.39 12.12Q100.76 11.52 101.02 11.02L101.02 11.02Q101.10 10.88 101.16 10.88L101.16 10.88Q101.28 10.88 101.28 11.20L101.28 11.20Q101.28 11.36 101.23 11.57Q101.18 11.78 101.06 11.98L101.06 11.98Q100.78 12.46 100.40 13.03Q100.02 13.60 99.62 14.16L99.62 14.16Q99.34 14.52 98.89 14.98Q98.44 15.44 97.93 15.78Q97.42 16.12 96.94 16.12ZM105.66 16.12L105.66 16.12Q104.98 16.12 104.73 15.71Q104.48 15.30 104.48 14.76L104.48 14.76Q104.48 14.18 104.67 13.41Q104.86 12.64 105.15 11.81Q105.44 10.98 105.74 10.26L105.74 10.26Q105.84 10.02 105.93 9.74Q106.02 9.46 106.02 9.24L106.02 9.24Q106.02 8.84 105.66 8.84L105.66 8.84Q105.52 8.84 105.34 8.89Q105.16 8.94 104.92 9.08L104.92 9.08Q104.50 9.28 104.12 9.63Q103.74 9.98 103.60 10.16L103.60 10.16Q103.34 10.48 103.10 10.87Q102.86 11.26 102.68 11.66L102.68 11.66Q102.28 12.52 102.05 13.29Q101.82 14.06 101.62 14.60L101.62 14.60Q101.50 14.94 101.38 15.30Q101.26 15.66 101.16 16L101.16 16L99.22 16Q99.22 16 99.36 15.50Q99.50 15 99.70 14.50L99.70 14.50Q100.62 12.12 101.44 9.64Q102.26 7.16 103.42 4.88L103.42 4.88Q103.94 3.86 104.55 3Q105.16 2.14 105.85 1.63Q106.54 1.12 107.30 1.12L107.30 1.12Q107.90 1.12 108.13 1.39Q108.36 1.66 108.36 2.06L108.36 2.06Q108.36 2.50 108.18 2.98Q108 3.46 107.82 3.80L107.82 3.80Q107.46 4.52 106.88 5.42Q106.30 6.32 105.66 7.10L105.66 7.10Q105.52 7.28 105.18 7.67Q104.84 8.06 104.49 8.46Q104.14 8.86 103.94 9.08L103.94 9.08Q104.60 8.60 105.08 8.34Q105.56 8.08 105.90 7.98L105.90 7.98Q106.48 7.82 106.86 7.82L106.86 7.82Q108 7.82 108 8.82L108 8.82Q108 9.24 107.76 9.82L107.76 9.82Q107.64 10.14 107.42 10.68Q107.20 11.22 106.97 11.83Q106.74 12.44 106.59 13Q106.44 13.56 106.44 13.92L106.44 13.92Q106.44 14.14 106.51 14.31Q106.58 14.48 106.78 14.48L106.78 14.48Q106.92 14.48 107.18 14.34L107.18 14.34Q107.74 14.02 108.23 13.44Q108.72 12.86 109.11 12.20Q109.50 11.54 109.78 11L109.78 11Q109.84 10.86 109.92 10.86L109.92 10.86Q110.02 10.86 110.02 11.20L110.02 11.20Q110.02 11.36 109.98 11.57Q109.94 11.78 109.82 11.98L109.82 11.98Q109.54 12.46 109.09 13.16Q108.64 13.86 108.08 14.53Q107.52 15.20 106.90 15.66Q106.28 16.12 105.66 16.12ZM103.36 8.94L103.36 8.94Q104.36 7.76 105.39 6.41Q106.42 5.06 107.10 3.66L107.10 3.66Q107.14 3.56 107.28 3.26Q107.42 2.96 107.54 2.59Q107.66 2.22 107.66 1.96L107.66 1.96Q107.66 1.62 107.40 1.62L107.40 1.62Q107.14 1.62 106.79 1.98Q106.44 2.34 106.08 2.94L106.08 2.94Q105.62 3.70 105.14 4.69Q104.66 5.68 104.21 6.78Q103.76 7.88 103.36 8.94ZM113.72 15.72L113.72 15.72Q112.80 16.20 111.78 16.20L111.78 16.20Q110.92 16.20 110.18 15.78Q109.44 15.36 109.18 14.44L109.18 14.44Q109.06 14.02 109.06 13.56L109.06 13.56Q109.06 12.80 109.33 11.99Q109.60 11.18 110.04 10.50L110.04 10.50Q110.72 9.44 111.76 8.74Q112.80 8.04 114.06 8.04L114.06 8.04Q115.00 8.04 115.52 8.52Q116.04 9 116.04 9.64L116.04 9.64Q116.04 10.40 115.53 10.97Q115.02 11.54 114.20 11.84L114.20 11.84Q113.80 11.98 113.35 12.05Q112.90 12.12 112.50 12.12L112.50 12.12Q111.68 12.12 111.24 11.90L111.24 11.90Q110.86 12.88 110.86 13.70L110.86 13.70Q110.86 14.44 111.20 14.91Q111.54 15.38 112.28 15.38L112.28 15.38Q112.90 15.38 113.51 15.04Q114.12 14.70 114.65 14.20Q115.18 13.70 115.54 13.24L115.54 13.24Q115.82 12.90 116.02 12.60Q116.22 12.30 116.44 11.91Q116.66 11.52 116.96 10.94L116.96 10.94Q117.04 10.80 117.10 10.80L117.10 10.80Q117.22 10.80 117.22 11.12L117.22 11.12Q117.22 11.30 117.17 11.51Q117.12 11.72 117.00 11.94L117.00 11.94Q116.72 12.44 116.33 13.03Q115.94 13.62 115.54 14.16L115.54 14.16Q115.18 14.64 114.72 15.04Q114.26 15.44 113.72 15.72ZM111.90 11.46L111.90 11.46Q112.00 11.52 112.12 11.54Q112.24 11.56 112.36 11.56L112.36 11.56Q112.76 11.56 113.16 11.37Q113.56 11.18 113.84 10.98L113.84 10.98Q114.30 10.66 114.62 10.22Q114.94 9.78 114.98 9.22L114.98 9.22Q115.00 8.98 114.87 8.81Q114.74 8.64 114.42 8.64L114.42 8.64Q114.26 8.64 114.02 8.70L114.02 8.70Q113.70 8.78 113.38 9Q113.06 9.22 112.76 9.52L112.76 9.52Q112.66 9.62 112.41 9.91Q112.16 10.20 111.94 10.55Q111.72 10.90 111.72 11.16L111.72 11.16Q111.72 11.38 111.90 11.46ZM120 20.96L120 20.96Q118.96 20.96 118.52 20.46Q118.08 19.96 118.08 19.38L118.08 19.38Q118.08 19.02 118.23 18.70Q118.38 18.38 118.64 18.24L118.64 18.24Q118.84 18.14 119 18.14L119 18.14Q119.22 18.14 119.40 18.28Q119.58 18.42 119.58 18.66L119.58 18.66Q119.58 18.72 119.57 18.77Q119.56 18.82 119.54 18.88L119.54 18.88Q119.42 18.98 119.31 19.18Q119.20 19.38 119.16 19.58L119.16 19.58Q119.14 19.62 119.14 19.68Q119.14 19.74 119.14 19.78L119.14 19.78Q119.14 20.04 119.30 20.22Q119.46 20.40 119.66 20.40L119.66 20.40Q120.18 20.40 120.66 20.02Q121.14 19.64 121.55 19.07Q121.96 18.50 122.28 17.92Q122.60 17.34 122.80 16.92L122.80 16.92Q123.72 15.06 124.55 13.04Q125.38 11.02 126.12 9.10L126.12 9.10L125.56 9.10Q125.20 9.10 124.81 9.22Q124.42 9.34 124.20 9.74L124.20 9.74Q123.88 10.36 123.51 11.06Q123.14 11.76 122.68 12.46L122.68 12.46Q122.60 12.60 122.54 12.60L122.54 12.60Q122.44 12.60 122.44 12.30L122.44 12.30Q122.44 11.94 122.56 11.70L122.56 11.70Q122.86 11.20 123.15 10.59Q123.44 9.98 123.68 9.42Q123.92 8.86 124.04 8.50L124.04 8.50Q124.14 8.22 124.25 8.12Q124.36 8.02 124.72 8.06L124.72 8.06L126.48 8.20Q126.72 7.56 126.95 6.95Q127.18 6.34 127.40 5.78L127.40 5.78Q127.86 4.62 128.46 3.56Q129.06 2.50 129.95 1.83Q130.84 1.16 132.12 1.16L132.12 1.16Q132.86 1.14 133.38 1.38Q133.90 1.62 134.14 2.28L134.14 2.28Q134.20 2.46 134.20 2.70L134.20 2.70Q134.20 3.10 134 3.52Q133.80 3.94 133.46 4.10L133.46 4.10Q133.36 4.16 133.24 4.18Q133.12 4.20 133.02 4.20L133.02 4.20Q132.76 4.20 132.56 4.06Q132.36 3.92 132.36 3.66L132.36 3.66Q132.36 3.54 132.42 3.40L132.42 3.40Q132.78 3.14 132.92 2.66L132.92 2.66Q132.94 2.58 132.95 2.52Q132.96 2.46 132.96 2.40L132.96 2.40Q132.96 2 132.66 1.82L132.66 1.82Q132.54 1.72 132.40 1.69Q132.26 1.66 132.12 1.66L132.12 1.66Q131.46 1.66 130.94 2.28L130.94 2.28Q130.30 3.02 129.77 4.10Q129.24 5.18 128.83 6.30Q128.42 7.42 128.10 8.28L128.10 8.28Q128.92 8.28 129.69 8.25Q130.46 8.22 131.02 8.15Q131.58 8.08 131.70 8L131.70 8Q131.56 8.38 131.23 8.60Q130.90 8.82 130.24 8.92L130.24 8.92Q129.78 9 129.14 9.03Q128.50 9.06 127.82 9.08L127.82 9.08L127.24 10.76Q126.96 11.56 126.57 12.62Q126.18 13.68 125.68 14.83Q125.18 15.98 124.57 17.06Q123.96 18.14 123.25 19.03Q122.54 19.92 121.73 20.44Q120.92 20.96 120 20.96ZM132.18 16.12L132.18 16.12Q131.62 16.12 131.34 15.71Q131.06 15.30 131.06 14.60L131.06 14.60Q131.06 14.50 131.06 14.40Q131.06 14.30 131.08 14.20L131.08 14.20Q131.18 13.44 131.43 12.48Q131.68 11.52 132.02 10.46L132.02 10.46Q132.22 9.86 132.53 8.95Q132.84 8.04 133.26 6.99Q133.68 5.94 134.19 4.90Q134.70 3.86 135.32 3.01Q135.94 2.16 136.63 1.64Q137.32 1.12 138.10 1.12L138.10 1.12Q138.74 1.12 138.98 1.43Q139.22 1.74 139.22 2.16L139.22 2.16Q139.22 2.60 139.06 3.05Q138.90 3.50 138.74 3.80L138.74 3.80Q138.38 4.52 137.80 5.42Q137.22 6.32 136.58 7.10L136.58 7.10Q136.20 7.60 135.64 8.22Q135.08 8.84 134.59 9.36Q134.10 9.88 133.88 10.08L133.88 10.08L133.56 11Q133.42 11.38 133.29 11.90Q133.16 12.42 133.07 12.93Q132.98 13.44 132.92 13.82L132.92 13.82Q132.90 13.90 132.90 13.98Q132.90 14.06 132.90 14.12L132.90 14.12Q132.90 14.72 133.36 14.72L133.36 14.72Q133.64 14.72 134.06 14.46L134.06 14.46Q134.46 14.22 134.83 13.83Q135.20 13.44 135.36 13.24L135.36 13.24Q135.76 12.72 136.12 12.13Q136.48 11.54 136.74 11.04L136.74 11.04Q136.84 10.88 136.88 10.88L136.88 10.88Q137 10.88 137 11.22L137 11.22Q137 11.38 136.95 11.59Q136.90 11.80 136.80 11.98L136.80 11.98Q136.52 12.46 136.14 13.04Q135.76 13.62 135.36 14.16L135.36 14.16Q135.06 14.56 134.52 15.02Q133.98 15.48 133.36 15.80Q132.74 16.12 132.18 16.12ZM134.28 8.94L134.28 8.94Q135.28 7.76 136.31 6.41Q137.34 5.06 138.02 3.66L138.02 3.66Q138.06 3.56 138.20 3.26Q138.34 2.96 138.46 2.59Q138.58 2.22 138.58 1.96L138.58 1.96Q138.58 1.62 138.32 1.62L138.32 1.62L138.18 1.62Q137.92 1.62 137.57 1.98Q137.22 2.34 136.86 2.94L136.86 2.94Q136.40 3.70 135.96 4.69Q135.52 5.68 135.10 6.78Q134.68 7.88 134.28 8.94ZM136.72 20.02L136.72 20.02Q136.22 20.02 135.67 19.87Q135.12 19.72 134.75 19.36Q134.38 19 134.38 18.40L134.38 18.40Q134.38 17.98 134.64 17.62Q134.90 17.26 135.36 17.26L135.36 17.26Q135.64 17.26 135.88 17.41Q136.12 17.56 136.20 17.78L136.20 17.78Q136.16 17.80 136.08 17.90Q136 18 135.98 18.04L135.98 18.04Q135.84 18.32 135.84 18.62L135.84 18.62Q135.84 19 136.11 19.23Q136.38 19.46 136.80 19.46L136.80 19.46Q137.34 19.46 137.92 19.06L137.92 19.06Q138.56 18.60 138.93 17.87Q139.30 17.14 139.52 16.56L139.52 16.56L140.66 13.52Q140.30 13.96 139.91 14.41Q139.52 14.86 139.42 14.96L139.42 14.96Q138.66 15.72 138.06 15.92Q137.46 16.12 137 16.12L137 16.12Q136.52 16.12 136.19 15.70Q135.86 15.28 135.86 14.48L135.86 14.48Q135.86 14.08 135.98 13.46Q136.10 12.84 136.32 12.13Q136.54 11.42 136.83 10.73Q137.12 10.04 137.46 9.50L137.46 9.50Q137.98 8.68 138.62 8.44Q139.26 8.20 140.24 8.20L140.24 8.20Q140.32 8.20 140.32 8.28L140.32 8.28Q140.32 8.36 140.20 8.48L140.20 8.48Q139.92 8.72 139.52 9.32Q139.12 9.92 138.75 10.64Q138.38 11.36 138.14 12.02L138.14 12.02Q137.98 12.48 137.83 13.10Q137.68 13.72 137.68 14.18L137.68 14.18Q137.68 14.50 137.77 14.69Q137.86 14.88 138.06 14.88L138.06 14.88Q138.38 14.88 138.94 14.40L138.94 14.40Q139.78 13.70 140.46 12.68Q141.14 11.66 141.62 10.56L141.62 10.56Q141.90 9.92 142.08 9.47Q142.26 9.02 142.48 8.74Q142.70 8.46 143.10 8.33Q143.50 8.20 144.18 8.20L144.18 8.20L145 8.20Q144.62 8.44 144.24 9.09Q143.86 9.74 143.52 10.62L143.52 10.62Q143.26 11.26 142.99 12.02Q142.72 12.78 142.44 13.56L142.44 13.56Q142.20 14.28 141.92 15.13Q141.64 15.98 141.28 16.79Q140.92 17.60 140.44 18.20L140.44 18.20Q139.76 19.04 138.78 19.53Q137.80 20.02 136.72 20.02Z"/></svg></svg>